<svg  viewBox="0 0 1440 700" fill="none" xmlns="http://www.w3.org/2000/svg">
<path d="M1440 520H-0.00012207" stroke="#D3D3D3" stroke-opacity="0.6" stroke-width="2" stroke-linecap="square"/>
<path d="M729 1V699" stroke="#D3D3D3" stroke-opacity="0.6" stroke-width="2" stroke-linecap="square"/>
<path d="M328 1V699" stroke="#D3D3D3" stroke-opacity="0.6" stroke-width="2" stroke-linecap="square"/>
<circle cx="512.451" cy="31.519" r="5.45051" fill="#D3D3D3"/>
<ellipse cx="534.75" cy="31.519" rx="5.45051" ry="5.45051" fill="#D3D3D3"/>
<ellipse cx="557.05" cy="31.519" rx="5.45051" ry="5.45051" fill="#D3D3D3"/>
<ellipse cx="579.35" cy="31.519" rx="5.45051" ry="5.45051" fill="#D3D3D3"/>
<ellipse cx="601.65" cy="31.519" rx="5.45051" ry="5.45051" fill="#D3D3D3"/>
<ellipse cx="623.95" cy="31.519" rx="5.45051" ry="5.45051" fill="#D3D3D3"/>
<ellipse cx="646.25" cy="31.519" rx="5.45051" ry="5.45051" fill="#D3D3D3"/>
<ellipse cx="668.549" cy="31.519" rx="5.45051" ry="5.45051" fill="#D3D3D3"/>
<ellipse cx="512.451" cy="59.5429" rx="5.45051" ry="5.45051" fill="#D3D3D3"/>
<ellipse cx="534.75" cy="59.5429" rx="5.45051" ry="5.45051" fill="#D3D3D3"/>
<circle cx="557.05" cy="59.5429" r="5.45051" fill="#D3D3D3"/>
<circle cx="579.35" cy="59.5429" r="5.45051" fill="#D3D3D3"/>
<circle cx="601.65" cy="59.5429" r="5.45051" fill="#D3D3D3"/>
<circle cx="623.95" cy="59.5429" r="5.45051" fill="#D3D3D3"/>
<circle cx="646.25" cy="59.5429" r="5.45051" fill="#D3D3D3"/>
<circle cx="668.549" cy="59.5429" r="5.45051" fill="#D3D3D3"/>
<ellipse cx="512.451" cy="87.5667" rx="5.45051" ry="5.45051" fill="#D3D3D3"/>
<ellipse cx="534.75" cy="87.5667" rx="5.45051" ry="5.45051" fill="#D3D3D3"/>
<circle cx="557.05" cy="87.5667" r="5.45051" fill="#D3D3D3"/>
<circle cx="579.35" cy="87.5667" r="5.45051" fill="#D3D3D3"/>
<circle cx="601.65" cy="87.5667" r="5.45051" fill="#D3D3D3"/>
<circle cx="623.95" cy="87.5667" r="5.45051" fill="#D3D3D3"/>
<circle cx="646.25" cy="87.5667" r="5.45051" fill="#D3D3D3"/>
<circle cx="668.549" cy="87.5667" r="5.45051" fill="#D3D3D3"/>
<ellipse cx="512.451" cy="115.591" rx="5.45051" ry="5.45051" fill="#D3D3D3"/>
<ellipse cx="534.75" cy="115.591" rx="5.45051" ry="5.45051" fill="#D3D3D3"/>
<circle cx="557.05" cy="115.591" r="5.45051" fill="#D3D3D3"/>
<circle cx="579.35" cy="115.591" r="5.45051" fill="#D3D3D3"/>
<circle cx="601.65" cy="115.591" r="5.45051" fill="#D3D3D3"/>
<circle cx="623.95" cy="115.591" r="5.45051" fill="#D3D3D3"/>
<circle cx="646.25" cy="115.591" r="5.45051" fill="#D3D3D3"/>
<ellipse cx="512.451" cy="143.615" rx="5.45051" ry="5.45051" fill="#D3D3D3"/>
<ellipse cx="534.75" cy="143.615" rx="5.45051" ry="5.45051" fill="#D3D3D3"/>
<circle cx="557.05" cy="143.615" r="5.45051" fill="#D3D3D3"/>
<circle cx="579.35" cy="143.615" r="5.45051" fill="#D3D3D3"/>
<circle cx="601.65" cy="143.615" r="5.45051" fill="#D3D3D3"/>
<circle cx="623.95" cy="143.615" r="5.45051" fill="#D3D3D3"/>
<ellipse cx="512.451" cy="171.648" rx="5.45051" ry="5.45051" fill="#D3D3D3"/>
<ellipse cx="534.75" cy="171.648" rx="5.45051" ry="5.45051" fill="#D3D3D3"/>
<circle cx="557.05" cy="171.648" r="5.45051" fill="#D3D3D3"/>
<circle cx="579.35" cy="171.648" r="5.45051" fill="#D3D3D3"/>
<circle cx="601.65" cy="171.648" r="5.45051" fill="#D3D3D3"/>
<ellipse cx="512.451" cy="199.662" rx="5.45051" ry="5.45051" fill="#D3D3D3"/>
<ellipse cx="534.75" cy="199.662" rx="5.45051" ry="5.45051" fill="#D3D3D3"/>
<circle cx="557.05" cy="199.662" r="5.45051" fill="#D3D3D3"/>
<circle cx="579.35" cy="199.662" r="5.45051" fill="#D3D3D3"/>
<ellipse cx="512.451" cy="227.686" rx="5.45051" ry="5.45051" fill="#D3D3D3"/>
<ellipse cx="534.75" cy="227.686" rx="5.45051" ry="5.45051" fill="#D3D3D3"/>
<circle cx="557.05" cy="227.686" r="5.45051" fill="#D3D3D3"/>
<circle cx="512.451" cy="255.71" r="5.45051" fill="#D3D3D3"/>
<circle cx="534.75" cy="255.71" r="5.45051" fill="#D3D3D3"/>
<circle cx="1434.55" cy="680.079" r="5.45051" transform="rotate(-180 1434.55 680.079)" fill="#D3D3D3"/>
<ellipse cx="1412.25" cy="680.079" rx="5.45051" ry="5.45051" transform="rotate(-180 1412.25 680.079)" fill="#D3D3D3"/>
<ellipse cx="1389.95" cy="680.079" rx="5.45051" ry="5.45051" transform="rotate(-180 1389.95 680.079)" fill="#D3D3D3"/>
<ellipse cx="1367.65" cy="680.079" rx="5.45051" ry="5.45051" transform="rotate(-180 1367.65 680.079)" fill="#D3D3D3"/>
<ellipse cx="1345.35" cy="680.079" rx="5.45051" ry="5.45051" transform="rotate(-180 1345.35 680.079)" fill="#D3D3D3"/>
<ellipse cx="1323.05" cy="680.079" rx="5.45051" ry="5.45051" transform="rotate(-180 1323.05 680.079)" fill="#D3D3D3"/>
<ellipse cx="1300.75" cy="680.079" rx="5.45051" ry="5.45051" transform="rotate(-180 1300.75 680.079)" fill="#D3D3D3"/>
<ellipse cx="1278.45" cy="680.079" rx="5.45051" ry="5.45051" transform="rotate(-180 1278.45 680.079)" fill="#D3D3D3"/>
<ellipse cx="1434.55" cy="652.055" rx="5.45051" ry="5.45051" transform="rotate(-180 1434.55 652.055)" fill="#D3D3D3"/>
<ellipse cx="1412.25" cy="652.055" rx="5.45051" ry="5.45051" transform="rotate(-180 1412.25 652.055)" fill="#D3D3D3"/>
<circle cx="1389.95" cy="652.055" r="5.45051" transform="rotate(-180 1389.95 652.055)" fill="#D3D3D3"/>
<circle cx="1367.65" cy="652.055" r="5.45051" transform="rotate(-180 1367.65 652.055)" fill="#D3D3D3"/>
<circle cx="1345.35" cy="652.055" r="5.45051" transform="rotate(-180 1345.35 652.055)" fill="#D3D3D3"/>
<circle cx="1323.05" cy="652.055" r="5.45051" transform="rotate(-180 1323.05 652.055)" fill="#D3D3D3"/>
<circle cx="1300.75" cy="652.055" r="5.45051" transform="rotate(-180 1300.75 652.055)" fill="#D3D3D3"/>
<circle cx="1278.45" cy="652.055" r="5.45051" transform="rotate(-180 1278.45 652.055)" fill="#D3D3D3"/>
<ellipse cx="1434.55" cy="624.031" rx="5.45051" ry="5.45051" transform="rotate(-180 1434.55 624.031)" fill="#D3D3D3"/>
<ellipse cx="1412.25" cy="624.031" rx="5.45051" ry="5.45051" transform="rotate(-180 1412.25 624.031)" fill="#D3D3D3"/>
<circle cx="1389.95" cy="624.031" r="5.45051" transform="rotate(-180 1389.95 624.031)" fill="#D3D3D3"/>
<circle cx="1367.65" cy="624.031" r="5.45051" transform="rotate(-180 1367.65 624.031)" fill="#D3D3D3"/>
<circle cx="1345.35" cy="624.031" r="5.45051" transform="rotate(-180 1345.35 624.031)" fill="#D3D3D3"/>
<circle cx="1323.05" cy="624.031" r="5.45051" transform="rotate(-180 1323.05 624.031)" fill="#D3D3D3"/>
<circle cx="1300.75" cy="624.031" r="5.45051" transform="rotate(-180 1300.75 624.031)" fill="#D3D3D3"/>
<circle cx="1278.45" cy="624.031" r="5.45051" transform="rotate(-180 1278.45 624.031)" fill="#D3D3D3"/>
<ellipse cx="1434.55" cy="596.007" rx="5.45051" ry="5.45051" transform="rotate(-180 1434.55 596.007)" fill="#D3D3D3"/>
<ellipse cx="1412.25" cy="596.007" rx="5.45051" ry="5.45051" transform="rotate(-180 1412.25 596.007)" fill="#D3D3D3"/>
<circle cx="1389.95" cy="596.007" r="5.45051" transform="rotate(-180 1389.95 596.007)" fill="#D3D3D3"/>
<circle cx="1367.65" cy="596.007" r="5.45051" transform="rotate(-180 1367.65 596.007)" fill="#D3D3D3"/>
<circle cx="1345.35" cy="596.007" r="5.45051" transform="rotate(-180 1345.35 596.007)" fill="#D3D3D3"/>
<circle cx="1323.05" cy="596.007" r="5.45051" transform="rotate(-180 1323.05 596.007)" fill="#D3D3D3"/>
<circle cx="1300.75" cy="596.007" r="5.45051" transform="rotate(-180 1300.75 596.007)" fill="#D3D3D3"/>
<ellipse cx="1434.55" cy="567.983" rx="5.45051" ry="5.45051" transform="rotate(-180 1434.55 567.983)" fill="#D3D3D3"/>
<ellipse cx="1412.25" cy="567.983" rx="5.45051" ry="5.45051" transform="rotate(-180 1412.25 567.983)" fill="#D3D3D3"/>
<circle cx="1389.95" cy="567.983" r="5.45051" transform="rotate(-180 1389.95 567.983)" fill="#D3D3D3"/>
<circle cx="1367.65" cy="567.983" r="5.45051" transform="rotate(-180 1367.65 567.983)" fill="#D3D3D3"/>
<circle cx="1345.35" cy="567.983" r="5.45051" transform="rotate(-180 1345.35 567.983)" fill="#D3D3D3"/>
<circle cx="1323.05" cy="567.983" r="5.45051" transform="rotate(-180 1323.05 567.983)" fill="#D3D3D3"/>
<ellipse cx="1434.55" cy="539.949" rx="5.45051" ry="5.45051" transform="rotate(-180 1434.55 539.949)" fill="#D3D3D3"/>
<ellipse cx="1412.25" cy="539.949" rx="5.45051" ry="5.45051" transform="rotate(-180 1412.25 539.949)" fill="#D3D3D3"/>
<circle cx="1389.95" cy="539.949" r="5.45051" transform="rotate(-180 1389.95 539.949)" fill="#D3D3D3"/>
<circle cx="1367.65" cy="539.949" r="5.45051" transform="rotate(-180 1367.65 539.949)" fill="#D3D3D3"/>
<circle cx="1345.35" cy="539.949" r="5.45051" transform="rotate(-180 1345.35 539.949)" fill="#D3D3D3"/>
<ellipse cx="1434.55" cy="511.935" rx="5.45051" ry="5.45051" transform="rotate(-180 1434.55 511.935)" fill="#D3D3D3"/>
<ellipse cx="1412.25" cy="511.935" rx="5.45051" ry="5.45051" transform="rotate(-180 1412.25 511.935)" fill="#D3D3D3"/>
<circle cx="1389.95" cy="511.935" r="5.45051" transform="rotate(-180 1389.95 511.935)" fill="#D3D3D3"/>
<circle cx="1367.65" cy="511.935" r="5.45051" transform="rotate(-180 1367.65 511.935)" fill="#D3D3D3"/>
<ellipse cx="1434.55" cy="483.911" rx="5.45051" ry="5.45051" transform="rotate(-180 1434.55 483.911)" fill="#D3D3D3"/>
<ellipse cx="1412.25" cy="483.911" rx="5.45051" ry="5.45051" transform="rotate(-180 1412.25 483.911)" fill="#D3D3D3"/>
<circle cx="1389.95" cy="483.911" r="5.45051" transform="rotate(-180 1389.95 483.911)" fill="#D3D3D3"/>
<circle cx="1434.55" cy="455.888" r="5.45051" transform="rotate(-180 1434.55 455.888)" fill="#D3D3D3"/>
<circle cx="1412.25" cy="455.888" r="5.45051" transform="rotate(-180 1412.25 455.888)" fill="#D3D3D3"/>
</svg>
