<svg width="1956" height="700" viewBox="0 0 1956 700" fill="none" xmlns="http://www.w3.org/2000/svg">
<path d="M1955 520H1" stroke="#D3D3D3" stroke-opacity="0.6" stroke-width="2" stroke-linecap="square"/>
<path d="M990.212 1V699" stroke="#D3D3D3" stroke-opacity="0.6" stroke-width="2" stroke-linecap="square"/>
<path d="M446.078 1V699" stroke="#D3D3D3" stroke-opacity="0.6" stroke-width="2" stroke-linecap="square"/>
<ellipse cx="696.367" cy="31.519" rx="7.39603" ry="5.45051" fill="#D3D3D3"/>
<ellipse cx="726.627" cy="31.519" rx="7.39603" ry="5.45051" fill="#D3D3D3"/>
<ellipse cx="756.886" cy="31.519" rx="7.39603" ry="5.45051" fill="#D3D3D3"/>
<ellipse cx="787.146" cy="31.519" rx="7.39603" ry="5.45051" fill="#D3D3D3"/>
<ellipse cx="817.405" cy="31.519" rx="7.39603" ry="5.45051" fill="#D3D3D3"/>
<ellipse cx="847.665" cy="31.519" rx="7.39603" ry="5.45051" fill="#D3D3D3"/>
<ellipse cx="877.925" cy="31.519" rx="7.39603" ry="5.45051" fill="#D3D3D3"/>
<ellipse cx="908.185" cy="31.519" rx="7.39603" ry="5.45051" fill="#D3D3D3"/>
<ellipse cx="696.367" cy="59.5429" rx="7.39603" ry="5.45051" fill="#D3D3D3"/>
<ellipse cx="726.627" cy="59.5429" rx="7.39603" ry="5.45051" fill="#D3D3D3"/>
<ellipse cx="756.886" cy="59.5429" rx="7.39603" ry="5.45051" fill="#D3D3D3"/>
<ellipse cx="787.146" cy="59.5429" rx="7.39603" ry="5.45051" fill="#D3D3D3"/>
<ellipse cx="817.405" cy="59.5429" rx="7.39603" ry="5.45051" fill="#D3D3D3"/>
<ellipse cx="847.665" cy="59.5429" rx="7.39603" ry="5.45051" fill="#D3D3D3"/>
<ellipse cx="877.925" cy="59.5429" rx="7.39603" ry="5.45051" fill="#D3D3D3"/>
<ellipse cx="908.185" cy="59.5429" rx="7.39603" ry="5.45051" fill="#D3D3D3"/>
<ellipse cx="696.367" cy="87.5667" rx="7.39603" ry="5.45051" fill="#D3D3D3"/>
<ellipse cx="726.627" cy="87.5667" rx="7.39603" ry="5.45051" fill="#D3D3D3"/>
<ellipse cx="756.886" cy="87.5667" rx="7.39603" ry="5.45051" fill="#D3D3D3"/>
<ellipse cx="787.146" cy="87.5667" rx="7.39603" ry="5.45051" fill="#D3D3D3"/>
<ellipse cx="817.405" cy="87.5667" rx="7.39603" ry="5.45051" fill="#D3D3D3"/>
<ellipse cx="847.665" cy="87.5667" rx="7.39603" ry="5.45051" fill="#D3D3D3"/>
<ellipse cx="877.925" cy="87.5667" rx="7.39603" ry="5.45051" fill="#D3D3D3"/>
<ellipse cx="908.185" cy="87.5667" rx="7.39603" ry="5.45051" fill="#D3D3D3"/>
<ellipse cx="696.367" cy="115.591" rx="7.39603" ry="5.45051" fill="#D3D3D3"/>
<ellipse cx="726.627" cy="115.591" rx="7.39603" ry="5.45051" fill="#D3D3D3"/>
<ellipse cx="756.886" cy="115.591" rx="7.39603" ry="5.45051" fill="#D3D3D3"/>
<ellipse cx="787.146" cy="115.591" rx="7.39603" ry="5.45051" fill="#D3D3D3"/>
<ellipse cx="817.405" cy="115.591" rx="7.39603" ry="5.45051" fill="#D3D3D3"/>
<ellipse cx="847.665" cy="115.591" rx="7.39603" ry="5.45051" fill="#D3D3D3"/>
<ellipse cx="877.925" cy="115.591" rx="7.39603" ry="5.45051" fill="#D3D3D3"/>
<ellipse cx="696.367" cy="143.615" rx="7.39603" ry="5.45051" fill="#D3D3D3"/>
<ellipse cx="726.627" cy="143.615" rx="7.39603" ry="5.45051" fill="#D3D3D3"/>
<ellipse cx="756.886" cy="143.615" rx="7.39603" ry="5.45051" fill="#D3D3D3"/>
<ellipse cx="787.146" cy="143.615" rx="7.39603" ry="5.45051" fill="#D3D3D3"/>
<ellipse cx="817.405" cy="143.615" rx="7.39603" ry="5.45051" fill="#D3D3D3"/>
<ellipse cx="847.665" cy="143.615" rx="7.39603" ry="5.45051" fill="#D3D3D3"/>
<ellipse cx="696.367" cy="171.648" rx="7.39603" ry="5.45051" fill="#D3D3D3"/>
<ellipse cx="726.627" cy="171.648" rx="7.39603" ry="5.45051" fill="#D3D3D3"/>
<ellipse cx="756.886" cy="171.648" rx="7.39603" ry="5.45051" fill="#D3D3D3"/>
<ellipse cx="787.146" cy="171.648" rx="7.39603" ry="5.45051" fill="#D3D3D3"/>
<ellipse cx="817.405" cy="171.648" rx="7.39603" ry="5.45051" fill="#D3D3D3"/>
<ellipse cx="696.367" cy="199.662" rx="7.39603" ry="5.45051" fill="#D3D3D3"/>
<ellipse cx="726.627" cy="199.662" rx="7.39603" ry="5.45051" fill="#D3D3D3"/>
<ellipse cx="756.886" cy="199.662" rx="7.39603" ry="5.45051" fill="#D3D3D3"/>
<ellipse cx="787.146" cy="199.662" rx="7.39603" ry="5.45051" fill="#D3D3D3"/>
<ellipse cx="696.367" cy="227.686" rx="7.39603" ry="5.45051" fill="#D3D3D3"/>
<ellipse cx="726.627" cy="227.686" rx="7.39603" ry="5.45051" fill="#D3D3D3"/>
<ellipse cx="756.886" cy="227.686" rx="7.39603" ry="5.45051" fill="#D3D3D3"/>
<ellipse cx="696.367" cy="255.71" rx="7.39603" ry="5.45051" fill="#D3D3D3"/>
<ellipse cx="726.627" cy="255.71" rx="7.39603" ry="5.45051" fill="#D3D3D3"/>
<ellipse cx="1947.6" cy="680.079" rx="7.39603" ry="5.45051" transform="rotate(-180 1947.6 680.079)" fill="#D3D3D3"/>
<ellipse cx="1917.34" cy="680.079" rx="7.39603" ry="5.45051" transform="rotate(-180 1917.34 680.079)" fill="#D3D3D3"/>
<ellipse cx="1887.08" cy="680.079" rx="7.39603" ry="5.45051" transform="rotate(-180 1887.08 680.079)" fill="#D3D3D3"/>
<ellipse cx="1856.82" cy="680.079" rx="7.39603" ry="5.45051" transform="rotate(-180 1856.82 680.079)" fill="#D3D3D3"/>
<ellipse cx="1826.56" cy="680.079" rx="7.39603" ry="5.45051" transform="rotate(-180 1826.56 680.079)" fill="#D3D3D3"/>
<ellipse cx="1796.31" cy="680.079" rx="7.39603" ry="5.45051" transform="rotate(-180 1796.31 680.079)" fill="#D3D3D3"/>
<ellipse cx="1766.05" cy="680.079" rx="7.39603" ry="5.45051" transform="rotate(-180 1766.05 680.079)" fill="#D3D3D3"/>
<ellipse cx="1735.79" cy="680.079" rx="7.39603" ry="5.45051" transform="rotate(-180 1735.79 680.079)" fill="#D3D3D3"/>
<ellipse cx="1947.6" cy="652.055" rx="7.39603" ry="5.45051" transform="rotate(-180 1947.6 652.055)" fill="#D3D3D3"/>
<ellipse cx="1917.34" cy="652.055" rx="7.39603" ry="5.45051" transform="rotate(-180 1917.34 652.055)" fill="#D3D3D3"/>
<ellipse cx="1887.08" cy="652.055" rx="7.39603" ry="5.45051" transform="rotate(-180 1887.08 652.055)" fill="#D3D3D3"/>
<ellipse cx="1856.82" cy="652.055" rx="7.39603" ry="5.45051" transform="rotate(-180 1856.82 652.055)" fill="#D3D3D3"/>
<ellipse cx="1826.56" cy="652.055" rx="7.39603" ry="5.45051" transform="rotate(-180 1826.56 652.055)" fill="#D3D3D3"/>
<ellipse cx="1796.31" cy="652.055" rx="7.39603" ry="5.45051" transform="rotate(-180 1796.31 652.055)" fill="#D3D3D3"/>
<ellipse cx="1766.05" cy="652.055" rx="7.39603" ry="5.45051" transform="rotate(-180 1766.05 652.055)" fill="#D3D3D3"/>
<ellipse cx="1735.79" cy="652.055" rx="7.39603" ry="5.45051" transform="rotate(-180 1735.79 652.055)" fill="#D3D3D3"/>
<ellipse cx="1947.6" cy="624.031" rx="7.39603" ry="5.45051" transform="rotate(-180 1947.6 624.031)" fill="#D3D3D3"/>
<ellipse cx="1917.34" cy="624.031" rx="7.39603" ry="5.45051" transform="rotate(-180 1917.34 624.031)" fill="#D3D3D3"/>
<ellipse cx="1887.08" cy="624.031" rx="7.39603" ry="5.45051" transform="rotate(-180 1887.08 624.031)" fill="#D3D3D3"/>
<ellipse cx="1856.82" cy="624.031" rx="7.39603" ry="5.45051" transform="rotate(-180 1856.82 624.031)" fill="#D3D3D3"/>
<ellipse cx="1826.56" cy="624.031" rx="7.39603" ry="5.45051" transform="rotate(-180 1826.56 624.031)" fill="#D3D3D3"/>
<ellipse cx="1796.31" cy="624.031" rx="7.39603" ry="5.45051" transform="rotate(-180 1796.31 624.031)" fill="#D3D3D3"/>
<ellipse cx="1766.05" cy="624.031" rx="7.39603" ry="5.45051" transform="rotate(-180 1766.05 624.031)" fill="#D3D3D3"/>
<ellipse cx="1735.79" cy="624.031" rx="7.39603" ry="5.45051" transform="rotate(-180 1735.79 624.031)" fill="#D3D3D3"/>
<ellipse cx="1947.6" cy="596.007" rx="7.39603" ry="5.45051" transform="rotate(-180 1947.6 596.007)" fill="#D3D3D3"/>
<ellipse cx="1917.34" cy="596.007" rx="7.39603" ry="5.45051" transform="rotate(-180 1917.34 596.007)" fill="#D3D3D3"/>
<ellipse cx="1887.08" cy="596.007" rx="7.39603" ry="5.45051" transform="rotate(-180 1887.08 596.007)" fill="#D3D3D3"/>
<ellipse cx="1856.82" cy="596.007" rx="7.39603" ry="5.45051" transform="rotate(-180 1856.82 596.007)" fill="#D3D3D3"/>
<ellipse cx="1826.56" cy="596.007" rx="7.39603" ry="5.45051" transform="rotate(-180 1826.56 596.007)" fill="#D3D3D3"/>
<ellipse cx="1796.31" cy="596.007" rx="7.39603" ry="5.45051" transform="rotate(-180 1796.31 596.007)" fill="#D3D3D3"/>
<ellipse cx="1766.05" cy="596.007" rx="7.39603" ry="5.45051" transform="rotate(-180 1766.05 596.007)" fill="#D3D3D3"/>
<ellipse cx="1947.6" cy="567.983" rx="7.39603" ry="5.45051" transform="rotate(-180 1947.6 567.983)" fill="#D3D3D3"/>
<ellipse cx="1917.34" cy="567.983" rx="7.39603" ry="5.45051" transform="rotate(-180 1917.34 567.983)" fill="#D3D3D3"/>
<ellipse cx="1887.08" cy="567.983" rx="7.39603" ry="5.45051" transform="rotate(-180 1887.08 567.983)" fill="#D3D3D3"/>
<ellipse cx="1856.82" cy="567.983" rx="7.39603" ry="5.45051" transform="rotate(-180 1856.82 567.983)" fill="#D3D3D3"/>
<ellipse cx="1826.56" cy="567.983" rx="7.39603" ry="5.45051" transform="rotate(-180 1826.56 567.983)" fill="#D3D3D3"/>
<ellipse cx="1796.31" cy="567.983" rx="7.39603" ry="5.45051" transform="rotate(-180 1796.31 567.983)" fill="#D3D3D3"/>
<ellipse cx="1947.6" cy="539.949" rx="7.39603" ry="5.45051" transform="rotate(-180 1947.6 539.949)" fill="#D3D3D3"/>
<ellipse cx="1917.34" cy="539.949" rx="7.39603" ry="5.45051" transform="rotate(-180 1917.34 539.949)" fill="#D3D3D3"/>
<ellipse cx="1887.08" cy="539.949" rx="7.39603" ry="5.45051" transform="rotate(-180 1887.08 539.949)" fill="#D3D3D3"/>
<ellipse cx="1856.82" cy="539.949" rx="7.39603" ry="5.45051" transform="rotate(-180 1856.82 539.949)" fill="#D3D3D3"/>
<ellipse cx="1826.56" cy="539.949" rx="7.39603" ry="5.45051" transform="rotate(-180 1826.56 539.949)" fill="#D3D3D3"/>
<ellipse cx="1947.6" cy="511.935" rx="7.39603" ry="5.45051" transform="rotate(-180 1947.6 511.935)" fill="#D3D3D3"/>
<ellipse cx="1917.34" cy="511.935" rx="7.39603" ry="5.45051" transform="rotate(-180 1917.34 511.935)" fill="#D3D3D3"/>
<ellipse cx="1887.08" cy="511.935" rx="7.39603" ry="5.45051" transform="rotate(-180 1887.08 511.935)" fill="#D3D3D3"/>
<ellipse cx="1856.82" cy="511.935" rx="7.39603" ry="5.45051" transform="rotate(-180 1856.82 511.935)" fill="#D3D3D3"/>
<ellipse cx="1947.6" cy="483.911" rx="7.39603" ry="5.45051" transform="rotate(-180 1947.6 483.911)" fill="#D3D3D3"/>
<ellipse cx="1917.34" cy="483.911" rx="7.39603" ry="5.45051" transform="rotate(-180 1917.34 483.911)" fill="#D3D3D3"/>
<ellipse cx="1887.08" cy="483.911" rx="7.39603" ry="5.45051" transform="rotate(-180 1887.08 483.911)" fill="#D3D3D3"/>
<ellipse cx="1947.6" cy="455.888" rx="7.39603" ry="5.45051" transform="rotate(-180 1947.6 455.888)" fill="#D3D3D3"/>
<ellipse cx="1917.34" cy="455.888" rx="7.39603" ry="5.45051" transform="rotate(-180 1917.34 455.888)" fill="#D3D3D3"/>
</svg>
