<svg width="3002" height="700" viewBox="0 0 3002 700" fill="none" xmlns="http://www.w3.org/2000/svg">
<path d="M3001 520H1" stroke="#D3D3D3" stroke-opacity="0.6" stroke-width="2" stroke-linecap="square"/>
<path d="M1670 1V699" stroke="#D3D3D3" stroke-opacity="0.6" stroke-width="2" stroke-linecap="square"/>
<path d="M689 1V699" stroke="#D3D3D3" stroke-opacity="0.6" stroke-width="2" stroke-linecap="square"/>
<circle cx="823.451" cy="31.519" r="5.45051" fill="#D3D3D3"/>
<ellipse cx="845.751" cy="31.519" rx="5.45051" ry="5.45051" fill="#D3D3D3"/>
<ellipse cx="868.05" cy="31.519" rx="5.45051" ry="5.45051" fill="#D3D3D3"/>
<ellipse cx="890.35" cy="31.519" rx="5.45051" ry="5.45051" fill="#D3D3D3"/>
<ellipse cx="912.65" cy="31.519" rx="5.45051" ry="5.45051" fill="#D3D3D3"/>
<ellipse cx="934.95" cy="31.519" rx="5.45051" ry="5.45051" fill="#D3D3D3"/>
<ellipse cx="957.25" cy="31.519" rx="5.45051" ry="5.45051" fill="#D3D3D3"/>
<ellipse cx="979.55" cy="31.519" rx="5.45051" ry="5.45051" fill="#D3D3D3"/>
<ellipse cx="823.451" cy="59.5429" rx="5.45051" ry="5.45051" fill="#D3D3D3"/>
<ellipse cx="845.751" cy="59.5429" rx="5.45051" ry="5.45051" fill="#D3D3D3"/>
<circle cx="868.05" cy="59.5429" r="5.45051" fill="#D3D3D3"/>
<circle cx="890.35" cy="59.5429" r="5.45051" fill="#D3D3D3"/>
<circle cx="912.65" cy="59.5429" r="5.45051" fill="#D3D3D3"/>
<circle cx="934.95" cy="59.5429" r="5.45051" fill="#D3D3D3"/>
<circle cx="957.25" cy="59.5429" r="5.45051" fill="#D3D3D3"/>
<circle cx="979.55" cy="59.5429" r="5.45051" fill="#D3D3D3"/>
<ellipse cx="823.451" cy="87.5667" rx="5.45051" ry="5.45051" fill="#D3D3D3"/>
<ellipse cx="845.751" cy="87.5667" rx="5.45051" ry="5.45051" fill="#D3D3D3"/>
<circle cx="868.05" cy="87.5667" r="5.45051" fill="#D3D3D3"/>
<circle cx="890.35" cy="87.5667" r="5.45051" fill="#D3D3D3"/>
<circle cx="912.65" cy="87.5667" r="5.45051" fill="#D3D3D3"/>
<circle cx="934.95" cy="87.5667" r="5.45051" fill="#D3D3D3"/>
<circle cx="957.25" cy="87.5667" r="5.45051" fill="#D3D3D3"/>
<circle cx="979.55" cy="87.5667" r="5.45051" fill="#D3D3D3"/>
<ellipse cx="823.451" cy="115.591" rx="5.45051" ry="5.45051" fill="#D3D3D3"/>
<ellipse cx="845.751" cy="115.591" rx="5.45051" ry="5.45051" fill="#D3D3D3"/>
<circle cx="868.05" cy="115.591" r="5.45051" fill="#D3D3D3"/>
<circle cx="890.35" cy="115.591" r="5.45051" fill="#D3D3D3"/>
<circle cx="912.65" cy="115.591" r="5.45051" fill="#D3D3D3"/>
<circle cx="934.95" cy="115.591" r="5.45051" fill="#D3D3D3"/>
<circle cx="957.25" cy="115.591" r="5.45051" fill="#D3D3D3"/>
<ellipse cx="823.451" cy="143.615" rx="5.45051" ry="5.45051" fill="#D3D3D3"/>
<ellipse cx="845.751" cy="143.615" rx="5.45051" ry="5.45051" fill="#D3D3D3"/>
<circle cx="868.05" cy="143.615" r="5.45051" fill="#D3D3D3"/>
<circle cx="890.35" cy="143.615" r="5.45051" fill="#D3D3D3"/>
<circle cx="912.65" cy="143.615" r="5.45051" fill="#D3D3D3"/>
<circle cx="934.95" cy="143.615" r="5.45051" fill="#D3D3D3"/>
<ellipse cx="823.451" cy="171.648" rx="5.45051" ry="5.45051" fill="#D3D3D3"/>
<ellipse cx="845.751" cy="171.648" rx="5.45051" ry="5.45051" fill="#D3D3D3"/>
<circle cx="868.05" cy="171.648" r="5.45051" fill="#D3D3D3"/>
<circle cx="890.35" cy="171.648" r="5.45051" fill="#D3D3D3"/>
<circle cx="912.65" cy="171.648" r="5.45051" fill="#D3D3D3"/>
<ellipse cx="823.451" cy="199.662" rx="5.45051" ry="5.45051" fill="#D3D3D3"/>
<ellipse cx="845.751" cy="199.662" rx="5.45051" ry="5.45051" fill="#D3D3D3"/>
<circle cx="868.05" cy="199.662" r="5.45051" fill="#D3D3D3"/>
<circle cx="890.35" cy="199.662" r="5.45051" fill="#D3D3D3"/>
<ellipse cx="823.451" cy="227.686" rx="5.45051" ry="5.45051" fill="#D3D3D3"/>
<ellipse cx="845.751" cy="227.686" rx="5.45051" ry="5.45051" fill="#D3D3D3"/>
<circle cx="868.05" cy="227.686" r="5.45051" fill="#D3D3D3"/>
<circle cx="823.451" cy="255.71" r="5.45051" fill="#D3D3D3"/>
<circle cx="845.751" cy="255.71" r="5.45051" fill="#D3D3D3"/>
<circle cx="2995.55" cy="680.078" r="5.45051" transform="rotate(-180 2995.55 680.078)" fill="#D3D3D3"/>
<ellipse cx="2973.25" cy="680.078" rx="5.45051" ry="5.45051" transform="rotate(-180 2973.25 680.078)" fill="#D3D3D3"/>
<ellipse cx="2950.95" cy="680.078" rx="5.45051" ry="5.45051" transform="rotate(-180 2950.95 680.078)" fill="#D3D3D3"/>
<ellipse cx="2928.65" cy="680.078" rx="5.45051" ry="5.45051" transform="rotate(-180 2928.65 680.078)" fill="#D3D3D3"/>
<ellipse cx="2906.35" cy="680.078" rx="5.45051" ry="5.45051" transform="rotate(-180 2906.35 680.078)" fill="#D3D3D3"/>
<ellipse cx="2884.05" cy="680.078" rx="5.45051" ry="5.45051" transform="rotate(-180 2884.05 680.078)" fill="#D3D3D3"/>
<ellipse cx="2861.75" cy="680.078" rx="5.45051" ry="5.45051" transform="rotate(-180 2861.75 680.078)" fill="#D3D3D3"/>
<ellipse cx="2839.45" cy="680.078" rx="5.45051" ry="5.45051" transform="rotate(-180 2839.45 680.078)" fill="#D3D3D3"/>
<ellipse cx="2995.55" cy="652.055" rx="5.45051" ry="5.45051" transform="rotate(-180 2995.55 652.055)" fill="#D3D3D3"/>
<ellipse cx="2973.25" cy="652.055" rx="5.45051" ry="5.45051" transform="rotate(-180 2973.25 652.055)" fill="#D3D3D3"/>
<circle cx="2950.95" cy="652.055" r="5.45051" transform="rotate(-180 2950.95 652.055)" fill="#D3D3D3"/>
<circle cx="2928.65" cy="652.055" r="5.45051" transform="rotate(-180 2928.65 652.055)" fill="#D3D3D3"/>
<circle cx="2906.35" cy="652.055" r="5.45051" transform="rotate(-180 2906.35 652.055)" fill="#D3D3D3"/>
<circle cx="2884.05" cy="652.055" r="5.45051" transform="rotate(-180 2884.05 652.055)" fill="#D3D3D3"/>
<circle cx="2861.75" cy="652.055" r="5.45051" transform="rotate(-180 2861.75 652.055)" fill="#D3D3D3"/>
<circle cx="2839.45" cy="652.055" r="5.45051" transform="rotate(-180 2839.45 652.055)" fill="#D3D3D3"/>
<ellipse cx="2995.55" cy="624.031" rx="5.45051" ry="5.45051" transform="rotate(-180 2995.55 624.031)" fill="#D3D3D3"/>
<ellipse cx="2973.25" cy="624.031" rx="5.45051" ry="5.45051" transform="rotate(-180 2973.25 624.031)" fill="#D3D3D3"/>
<circle cx="2950.95" cy="624.031" r="5.45051" transform="rotate(-180 2950.95 624.031)" fill="#D3D3D3"/>
<circle cx="2928.65" cy="624.031" r="5.45051" transform="rotate(-180 2928.65 624.031)" fill="#D3D3D3"/>
<circle cx="2906.35" cy="624.031" r="5.45051" transform="rotate(-180 2906.35 624.031)" fill="#D3D3D3"/>
<circle cx="2884.05" cy="624.031" r="5.45051" transform="rotate(-180 2884.05 624.031)" fill="#D3D3D3"/>
<circle cx="2861.75" cy="624.031" r="5.45051" transform="rotate(-180 2861.75 624.031)" fill="#D3D3D3"/>
<circle cx="2839.45" cy="624.031" r="5.45051" transform="rotate(-180 2839.45 624.031)" fill="#D3D3D3"/>
<ellipse cx="2995.55" cy="596.007" rx="5.45051" ry="5.45051" transform="rotate(-180 2995.55 596.007)" fill="#D3D3D3"/>
<ellipse cx="2973.25" cy="596.007" rx="5.45051" ry="5.45051" transform="rotate(-180 2973.25 596.007)" fill="#D3D3D3"/>
<circle cx="2950.95" cy="596.007" r="5.45051" transform="rotate(-180 2950.95 596.007)" fill="#D3D3D3"/>
<circle cx="2928.65" cy="596.007" r="5.45051" transform="rotate(-180 2928.65 596.007)" fill="#D3D3D3"/>
<circle cx="2906.35" cy="596.007" r="5.45051" transform="rotate(-180 2906.35 596.007)" fill="#D3D3D3"/>
<circle cx="2884.05" cy="596.007" r="5.45051" transform="rotate(-180 2884.05 596.007)" fill="#D3D3D3"/>
<circle cx="2861.75" cy="596.007" r="5.45051" transform="rotate(-180 2861.75 596.007)" fill="#D3D3D3"/>
<ellipse cx="2995.55" cy="567.983" rx="5.45051" ry="5.45051" transform="rotate(-180 2995.55 567.983)" fill="#D3D3D3"/>
<ellipse cx="2973.25" cy="567.983" rx="5.45051" ry="5.45051" transform="rotate(-180 2973.25 567.983)" fill="#D3D3D3"/>
<circle cx="2950.95" cy="567.983" r="5.45051" transform="rotate(-180 2950.95 567.983)" fill="#D3D3D3"/>
<circle cx="2928.65" cy="567.983" r="5.45051" transform="rotate(-180 2928.65 567.983)" fill="#D3D3D3"/>
<circle cx="2906.35" cy="567.983" r="5.45051" transform="rotate(-180 2906.35 567.983)" fill="#D3D3D3"/>
<circle cx="2884.05" cy="567.983" r="5.45051" transform="rotate(-180 2884.05 567.983)" fill="#D3D3D3"/>
<ellipse cx="2995.55" cy="539.949" rx="5.45051" ry="5.45051" transform="rotate(-180 2995.55 539.949)" fill="#D3D3D3"/>
<ellipse cx="2973.25" cy="539.949" rx="5.45051" ry="5.45051" transform="rotate(-180 2973.25 539.949)" fill="#D3D3D3"/>
<circle cx="2950.95" cy="539.949" r="5.45051" transform="rotate(-180 2950.95 539.949)" fill="#D3D3D3"/>
<circle cx="2928.65" cy="539.949" r="5.45051" transform="rotate(-180 2928.65 539.949)" fill="#D3D3D3"/>
<circle cx="2906.35" cy="539.949" r="5.45051" transform="rotate(-180 2906.35 539.949)" fill="#D3D3D3"/>
<ellipse cx="2995.55" cy="511.935" rx="5.45051" ry="5.45051" transform="rotate(-180 2995.55 511.935)" fill="#D3D3D3"/>
<ellipse cx="2973.25" cy="511.935" rx="5.45051" ry="5.45051" transform="rotate(-180 2973.25 511.935)" fill="#D3D3D3"/>
<circle cx="2950.95" cy="511.935" r="5.45051" transform="rotate(-180 2950.95 511.935)" fill="#D3D3D3"/>
<circle cx="2928.65" cy="511.935" r="5.45051" transform="rotate(-180 2928.65 511.935)" fill="#D3D3D3"/>
<ellipse cx="2995.55" cy="483.911" rx="5.45051" ry="5.45051" transform="rotate(-180 2995.55 483.911)" fill="#D3D3D3"/>
<ellipse cx="2973.25" cy="483.911" rx="5.45051" ry="5.45051" transform="rotate(-180 2973.25 483.911)" fill="#D3D3D3"/>
<circle cx="2950.95" cy="483.911" r="5.45051" transform="rotate(-180 2950.95 483.911)" fill="#D3D3D3"/>
<circle cx="2995.55" cy="455.887" r="5.45051" transform="rotate(-180 2995.55 455.887)" fill="#D3D3D3"/>
<circle cx="2973.25" cy="455.887" r="5.45051" transform="rotate(-180 2973.25 455.887)" fill="#D3D3D3"/>
</svg>
